<?xml version="1.0" encoding="UTF-8" standalone="no"?>
<!DOCTYPE svg PUBLIC "-//W3C//DTD SVG 1.1//EN"
 "http://www.w3.org/Graphics/SVG/1.1/DTD/svg11.dtd">
<!-- Generated by graphviz version 2.50.0 (20211204.2007)
 -->
<!-- Title: lights_out Pages: 1 -->
<svg width="499pt" height="180pt"
 viewBox="0.00 0.00 499.17 180.00" xmlns="http://www.w3.org/2000/svg" xmlns:xlink="http://www.w3.org/1999/xlink">
<g id="graph0" class="graph" transform="scale(0.87 0.87) rotate(0) translate(4 202)">
<title>lights_out</title>
<polygon fill="white" stroke="transparent" points="-4,4 -4,-202 567.27,-202 567.27,4 -4,4"/>
<!-- showPets -->
<g id="node1" class="node">
<title>showPets</title>
<ellipse fill="none" stroke="#7f7f7f" cx="366.73" cy="-72" rx="48.99" ry="18"/>
<text text-anchor="middle" x="366.73" y="-68.3" font-family="Helvetica,sans-Serif" font-size="14.00">showPets</text>
</g>
<!-- sortByLikes -->
<g id="node2" class="node">
<title>sortByLikes</title>
<ellipse fill="none" stroke="#7f7f7f" cx="507.37" cy="-72" rx="55.79" ry="18"/>
<text text-anchor="middle" x="507.37" y="-68.3" font-family="Helvetica,sans-Serif" font-size="14.00">sortByLikes</text>
</g>
<!-- showPets&#45;&gt;sortByLikes -->
<g id="edge1" class="edge">
<title>showPets&#45;&gt;sortByLikes</title>
<path fill="none" stroke="#7f7f7f" d="M415.83,-72C423.95,-72 432.5,-72 440.97,-72"/>
<polygon fill="#7f7f7f" stroke="#7f7f7f" points="441.23,-75.5 451.23,-72 441.23,-68.5 441.23,-75.5"/>
</g>
<!-- handleButton -->
<g id="node3" class="node">
<title>handleButton</title>
<ellipse fill="none" stroke="#7f7f7f" cx="216.99" cy="-126" rx="62.29" ry="18"/>
<text text-anchor="middle" x="216.99" y="-122.3" font-family="Helvetica,sans-Serif" font-size="14.00">handleButton</text>
</g>
<!-- handleButton&#45;&gt;showPets -->
<g id="edge2" class="edge">
<title>handleButton&#45;&gt;showPets</title>
<path fill="none" stroke="#7f7f7f" d="M256.43,-111.95C276.5,-104.62 301.15,-95.6 321.96,-88"/>
<polygon fill="#7f7f7f" stroke="#7f7f7f" points="323.34,-91.22 331.53,-84.5 320.93,-84.65 323.34,-91.22"/>
</g>
<!-- deletePet -->
<g id="node4" class="node">
<title>deletePet</title>
<ellipse fill="none" stroke="#7f7f7f" cx="366.73" cy="-126" rx="48.19" ry="18"/>
<text text-anchor="middle" x="366.73" y="-122.3" font-family="Helvetica,sans-Serif" font-size="14.00">deletePet</text>
</g>
<!-- handleButton&#45;&gt;deletePet -->
<g id="edge3" class="edge">
<title>handleButton&#45;&gt;deletePet</title>
<path fill="none" stroke="#7f7f7f" d="M279.79,-126C289.32,-126 299.11,-126 308.53,-126"/>
<polygon fill="#7f7f7f" stroke="#7f7f7f" points="308.57,-129.5 318.57,-126 308.57,-122.5 308.57,-129.5"/>
</g>
<!-- likePet -->
<g id="node5" class="node">
<title>likePet</title>
<ellipse fill="none" stroke="#7f7f7f" cx="366.73" cy="-180" rx="37.09" ry="18"/>
<text text-anchor="middle" x="366.73" y="-176.3" font-family="Helvetica,sans-Serif" font-size="14.00">likePet</text>
</g>
<!-- handleButton&#45;&gt;likePet -->
<g id="edge4" class="edge">
<title>handleButton&#45;&gt;likePet</title>
<path fill="none" stroke="#7f7f7f" d="M256.43,-140.05C278.08,-147.96 305.05,-157.82 326.78,-165.76"/>
<polygon fill="#7f7f7f" stroke="#7f7f7f" points="325.77,-169.12 336.36,-169.26 328.17,-162.54 325.77,-169.12"/>
</g>
<!-- handleSubmit -->
<g id="node6" class="node">
<title>handleSubmit</title>
<ellipse fill="none" stroke="#7f7f7f" cx="216.99" cy="-18" rx="64.99" ry="18"/>
<text text-anchor="middle" x="216.99" y="-14.3" font-family="Helvetica,sans-Serif" font-size="14.00">handleSubmit</text>
</g>
<!-- handleSubmit&#45;&gt;showPets -->
<g id="edge5" class="edge">
<title>handleSubmit&#45;&gt;showPets</title>
<path fill="none" stroke="#7f7f7f" d="M257.2,-32.33C277.12,-39.61 301.4,-48.49 321.94,-55.99"/>
<polygon fill="#7f7f7f" stroke="#7f7f7f" points="320.79,-59.3 331.38,-59.44 323.19,-52.72 320.79,-59.3"/>
</g>
<!-- addPet -->
<g id="node7" class="node">
<title>addPet</title>
<ellipse fill="none" stroke="#7f7f7f" cx="366.73" cy="-18" rx="38.19" ry="18"/>
<text text-anchor="middle" x="366.73" y="-14.3" font-family="Helvetica,sans-Serif" font-size="14.00">addPet</text>
</g>
<!-- handleSubmit&#45;&gt;addPet -->
<g id="edge6" class="edge">
<title>handleSubmit&#45;&gt;addPet</title>
<path fill="none" stroke="#7f7f7f" d="M282.37,-18C294.39,-18 306.76,-18 318.16,-18"/>
<polygon fill="#7f7f7f" stroke="#7f7f7f" points="318.33,-21.5 328.33,-18 318.33,-14.5 318.33,-21.5"/>
</g>
<!-- BUTTON_CLICK -->
<g id="node8" class="node">
<title>BUTTON_CLICK</title>
<polygon fill="none" stroke="firebrick" points="116,-144 0,-144 0,-108 116,-108 116,-144"/>
<text text-anchor="middle" x="58" y="-122.3" font-family="Helvetica,sans-Serif" font-size="14.00">BUTTON CLICK</text>
</g>
<!-- BUTTON_CLICK&#45;&gt;handleButton -->
<g id="edge7" class="edge">
<title>BUTTON_CLICK&#45;&gt;handleButton</title>
<path fill="none" stroke="#7f7f7f" d="M116.12,-126C125.27,-126 134.83,-126 144.26,-126"/>
<polygon fill="#7f7f7f" stroke="#7f7f7f" points="144.41,-129.5 154.41,-126 144.41,-122.5 144.41,-129.5"/>
</g>
<!-- FORM_SUBMIT -->
<g id="node9" class="node">
<title>FORM_SUBMIT</title>
<polygon fill="none" stroke="firebrick" points="114.5,-36 1.5,-36 1.5,0 114.5,0 114.5,-36"/>
<text text-anchor="middle" x="58" y="-14.3" font-family="Helvetica,sans-Serif" font-size="14.00">FORM SUBMIT</text>
</g>
<!-- FORM_SUBMIT&#45;&gt;handleSubmit -->
<g id="edge8" class="edge">
<title>FORM_SUBMIT&#45;&gt;handleSubmit</title>
<path fill="none" stroke="#7f7f7f" d="M114.79,-18C123.5,-18 132.62,-18 141.66,-18"/>
<polygon fill="#7f7f7f" stroke="#7f7f7f" points="141.81,-21.5 151.81,-18 141.81,-14.5 141.81,-21.5"/>
</g>
<!-- PAGE_LOAD -->
<g id="node10" class="node">
<title>PAGE_LOAD</title>
<polygon fill="none" stroke="firebrick" points="264.99,-90 168.99,-90 168.99,-54 264.99,-54 264.99,-90"/>
<text text-anchor="middle" x="216.99" y="-68.3" font-family="Helvetica,sans-Serif" font-size="14.00">PAGE LOAD</text>
</g>
<!-- PAGE_LOAD&#45;&gt;showPets -->
<g id="edge9" class="edge">
<title>PAGE_LOAD&#45;&gt;showPets</title>
<path fill="none" stroke="#7f7f7f" d="M265.15,-72C278.67,-72 293.57,-72 307.67,-72"/>
<polygon fill="#7f7f7f" stroke="#7f7f7f" points="307.76,-75.5 317.76,-72 307.76,-68.5 307.76,-75.5"/>
</g>
</g>
</svg>
